<?xml version="1.0" encoding="utf-8"?>
<!-- Generator: Adobe Illustrator 24.1.2, SVG Export Plug-In . SVG Version: 6.00 Build 0)  -->
<svg version="1.1" id="Layer_1" xmlns="http://www.w3.org/2000/svg" xmlns:xlink="http://www.w3.org/1999/xlink" x="0px" y="0px"
	 width="32px" height="32px" viewBox="0 0 32 32" enable-background="new 0 0 32 32" xml:space="preserve">
<g>
	<rect x="28" y="0.0135" fill="none" width="4" height="4"/>
	<circle cx="30" cy="2.0135" r="1.5"/>
</g>
<g>
	<rect x="28" y="4.0135" fill="none" width="4" height="4"/>
	<circle cx="30" cy="6.0135" r="1.5"/>
</g>
<g>
	<rect x="28" y="8.0135" fill="none" width="4" height="4"/>
	<circle cx="30" cy="10.0135" r="1.5"/>
</g>
<g>
	<rect x="28" y="12.0135" fill="none" width="4" height="4"/>
	<circle cx="30" cy="14.0135" r="1.5"/>
</g>
<g>
	<rect x="28" y="16.0135" fill="none" width="4" height="4"/>
	<circle cx="30" cy="18.0135" r="1.5"/>
</g>
<g>
	<rect x="28" y="20.0135" fill="none" width="4" height="4"/>
	<circle cx="30" cy="22.0135" r="1.5"/>
</g>
<g>
	<rect x="28" y="24.0135" fill="none" width="4" height="4"/>
	<circle cx="30" cy="26.0135" r="1.5"/>
</g>
<g>
	<rect x="28" y="28.0135" fill="none" width="4" height="4"/>
	<circle cx="30" cy="30.0135" r="1.5"/>
</g>
<g>
	<rect x="24" y="0.0135" fill="none" width="4" height="4"/>
	<circle cx="26" cy="2.0135" r="1.5"/>
</g>
<g>
	<rect x="24" y="4.0135" fill="none" width="4" height="4"/>
	<circle cx="26" cy="6.0135" r="1.5"/>
</g>
<g>
	<rect x="24" y="8.0135" fill="none" width="4" height="4"/>
	<circle cx="26" cy="10.0135" r="1.5"/>
</g>
<g>
	<rect x="24" y="12.0135" fill="none" width="4" height="4"/>
	<circle cx="26" cy="14.0135" r="1.5"/>
</g>
<g>
	<rect x="24" y="16.0135" fill="none" width="4" height="4"/>
	<circle cx="26" cy="18.0135" r="1.5"/>
</g>
<g>
	<rect x="24" y="20.0135" fill="none" width="4" height="4"/>
	<circle cx="26" cy="22.0135" r="1.5"/>
</g>
<g>
	<rect x="24" y="24.0135" fill="none" width="4" height="4"/>
	<circle cx="26" cy="26.0135" r="1.5"/>
</g>
<g>
	<rect x="24" y="28.0135" fill="none" width="4" height="4"/>
	<circle cx="26" cy="30.0135" r="1.5"/>
</g>
<g>
	<rect x="20" y="0.0135" fill="none" width="4" height="4"/>
	<circle cx="22" cy="2.0135" r="1.5"/>
</g>
<g>
	<rect x="20" y="4.0135" fill="none" width="4" height="4"/>
	<circle cx="22" cy="6.0135" r="1.5"/>
</g>
<g>
	<rect x="20" y="8.0135" fill="none" width="4" height="4"/>
	<circle cx="22" cy="10.0135" r="1.5"/>
</g>
<g>
	<rect x="20" y="12.0135" fill="none" width="4" height="4"/>
	<circle cx="22" cy="14.0135" r="1.5"/>
</g>
<g>
	<rect x="20" y="16.0135" fill="none" width="4" height="4"/>
	<circle cx="22" cy="18.0135" r="1.5"/>
</g>
<g>
	<rect x="20" y="20.0135" fill="none" width="4" height="4"/>
	<circle cx="22" cy="22.0135" r="1.5"/>
</g>
<g>
	<rect x="20" y="24.0135" fill="none" width="4" height="4"/>
	<circle cx="22" cy="26.0135" r="1.5"/>
</g>
<g>
	<rect x="20" y="28.0135" fill="none" width="4" height="4"/>
	<circle cx="22" cy="30.0135" r="1.5"/>
</g>
<g>
	<rect x="16" y="0.0135" fill="none" width="4" height="4"/>
	<circle cx="18" cy="2.0135" r="1.5"/>
</g>
<g>
	<rect x="16" y="4.0135" fill="none" width="4" height="4"/>
	<circle cx="18" cy="6.0135" r="1.5"/>
</g>
<g>
	<rect x="16" y="8.0135" fill="none" width="4" height="4"/>
	<circle cx="18" cy="10.0135" r="1.5"/>
</g>
<g>
	<rect x="16" y="12.0135" fill="none" width="4" height="4"/>
	<circle cx="18" cy="14.0135" r="1.5"/>
</g>
<g>
	<rect x="16" y="16.0135" fill="none" width="4" height="4"/>
	<circle cx="18" cy="18.0135" r="1.5"/>
</g>
<g>
	<rect x="16" y="20.0135" fill="none" width="4" height="4"/>
	<circle cx="18" cy="22.0135" r="1.5"/>
</g>
<g>
	<rect x="16" y="24.0135" fill="none" width="4" height="4"/>
	<circle cx="18" cy="26.0135" r="1.5"/>
</g>
<g>
	<rect x="16" y="28.0135" fill="none" width="4" height="4"/>
	<circle cx="18" cy="30.0135" r="1.5"/>
</g>
<g>
	<rect x="12" y="0.0135" fill="none" width="4" height="4"/>
	<circle cx="14" cy="2.0135" r="1.5"/>
</g>
<g>
	<rect x="12" y="4.0135" fill="none" width="4" height="4"/>
	<circle cx="14" cy="6.0135" r="1.5"/>
</g>
<g>
	<rect x="12" y="8.0135" fill="none" width="4" height="4"/>
	<circle cx="14" cy="10.0135" r="1.5"/>
</g>
<g>
	<rect x="12" y="12.0135" fill="none" width="4" height="4"/>
	<circle cx="14" cy="14.0135" r="1.5"/>
</g>
<g>
	<rect x="12" y="16.0135" fill="none" width="4" height="4"/>
	<circle cx="14" cy="18.0135" r="1.5"/>
</g>
<g>
	<rect x="12" y="20.0135" fill="none" width="4" height="4"/>
	<circle cx="14" cy="22.0135" r="1.5"/>
</g>
<g>
	<rect x="12" y="24.0135" fill="none" width="4" height="4"/>
	<circle cx="14" cy="26.0135" r="1.5"/>
</g>
<g>
	<rect x="12" y="28.0135" fill="none" width="4" height="4"/>
	<circle cx="14" cy="30.0135" r="1.5"/>
</g>
<g>
	<rect x="8" y="0.0135" fill="none" width="4" height="4"/>
	<circle cx="10" cy="2.0135" r="1.5"/>
</g>
<g>
	<rect x="8" y="4.0135" fill="none" width="4" height="4"/>
	<circle cx="10" cy="6.0135" r="1.5"/>
</g>
<g>
	<rect x="8" y="8.0135" fill="none" width="4" height="4"/>
	<circle cx="10" cy="10.0135" r="1.5"/>
</g>
<g>
	<rect x="8" y="12.0135" fill="none" width="4" height="4"/>
	<circle cx="10" cy="14.0135" r="1.5"/>
</g>
<g>
	<rect x="8" y="16.0135" fill="none" width="4" height="4"/>
	<circle cx="10" cy="18.0135" r="1.5"/>
</g>
<g>
	<rect x="8" y="20.0135" fill="none" width="4" height="4"/>
	<circle cx="10" cy="22.0135" r="1.5"/>
</g>
<g>
	<rect x="8" y="24.0135" fill="none" width="4" height="4"/>
	<circle cx="10" cy="26.0135" r="1.5"/>
</g>
<g>
	<rect x="8" y="28.0135" fill="none" width="4" height="4"/>
	<circle cx="10" cy="30.0135" r="1.5"/>
</g>
<g>
	<rect x="4" y="0.0135" fill="none" width="4" height="4"/>
	<circle cx="6" cy="2.0135" r="1.5"/>
</g>
<g>
	<rect x="4" y="4.0135" fill="none" width="4" height="4"/>
	<circle cx="6" cy="6.0135" r="1.5"/>
</g>
<g>
	<rect x="4" y="8.0135" fill="none" width="4" height="4"/>
	<circle cx="6" cy="10.0135" r="1.5"/>
</g>
<g>
	<rect x="4" y="12.0135" fill="none" width="4" height="4"/>
	<circle cx="6" cy="14.0135" r="1.5"/>
</g>
<g>
	<rect x="4" y="16.0135" fill="none" width="4" height="4"/>
	<circle cx="6" cy="18.0135" r="1.5"/>
</g>
<g>
	<rect x="4" y="20.0135" fill="none" width="4" height="4"/>
	<circle cx="6" cy="22.0135" r="1.5"/>
</g>
<g>
	<rect x="4" y="24.0135" fill="none" width="4" height="4"/>
	<circle cx="6" cy="26.0135" r="1.5"/>
</g>
<g>
	<rect x="4" y="28.0135" fill="none" width="4" height="4"/>
	<circle cx="6" cy="30.0135" r="1.5"/>
</g>
<g>
	<rect y="0.0135" fill="none" width="4" height="4"/>
	<circle cx="2" cy="2.0135" r="1.5"/>
</g>
<g>
	<rect y="4.0135" fill="none" width="4" height="4"/>
	<circle cx="2" cy="6.0135" r="1.5"/>
</g>
<g>
	<rect y="8.0135" fill="none" width="4" height="4"/>
	<circle cx="2" cy="10.0135" r="1.5"/>
</g>
<g>
	<rect y="12.0135" fill="none" width="4" height="4"/>
	<circle cx="2" cy="14.0135" r="1.5"/>
</g>
<g>
	<rect y="16.0135" fill="none" width="4" height="4"/>
	<circle cx="2" cy="18.0135" r="1.5"/>
</g>
<g>
	<rect y="20.0135" fill="none" width="4" height="4"/>
	<circle cx="2" cy="22.0135" r="1.5"/>
</g>
<g>
	<rect y="24.0135" fill="none" width="4" height="4"/>
	<circle cx="2" cy="26.0135" r="1.5"/>
</g>
<g>
	<rect y="28.0135" fill="none" width="4" height="4"/>
	<circle cx="2" cy="30.0135" r="1.5"/>
</g>
</svg>
